<svg xmlns="http://www.w3.org/2000/svg" width="17.499" height="14.214" viewBox="0 0 17.499 14.214"><defs><style>.a{}</style></defs><g transform="translate(0 0)"><path class="a" d="M208.377,136.445c2.152.465,4.654,1.978,4.654,6.341,0,1.164-1.454,1.164-6.166,1.164-4.77,0-6.166,0-6.166-1.164,0-4.3,2.5-5.875,4.654-6.341a3.716,3.716,0,0,1-1.454-4.828,3.118,3.118,0,0,1,4.42-1.455,3.679,3.679,0,0,1,1.337,4.77A3.331,3.331,0,0,1,208.377,136.445Z" transform="translate(-198.029 -129.735)"/><path class="a" d="M69.38,169.727a.234.234,0,0,0,.078-.41,3.756,3.756,0,0,1-1.025-4.547,3.353,3.353,0,0,1,.39-.642.234.234,0,0,0-.207-.375,2.591,2.591,0,0,0-2.122,1.517,3.051,3.051,0,0,0,.769,3.639.235.235,0,0,1-.078.406c-1.615.5-3.286,1.845-3.286,5.014,0,.486.3.72,1.117.836a.235.235,0,0,0,.266-.209A5.58,5.58,0,0,1,69.38,169.727Zm6.539,0a.234.234,0,0,1-.078-.41,3.756,3.756,0,0,0,1.025-4.547,3.353,3.353,0,0,0-.39-.642.234.234,0,0,1,.207-.375A2.591,2.591,0,0,1,78.8,165.27a3.051,3.051,0,0,1-.769,3.639.235.235,0,0,0,.078.406c1.615.5,3.286,1.845,3.286,5.014,0,.486-.3.72-1.117.836a.235.235,0,0,1-.266-.209A5.58,5.58,0,0,0,75.919,169.727Z" transform="translate(-63.9 -163.087)"/></g></svg>