<svg xmlns="http://www.w3.org/2000/svg" width="16.897" height="16.094" viewBox="0 0 16.897 16.094"><defs><style></style></defs><path class="a" d="M12.706,6.864A4.224,4.224,0,1,1,10.354,14.6L9.106,15.846a.792.792,0,1,1-1.12-1.119l1.241-1.242a4.224,4.224,0,0,1,3.479-6.62ZM.2,12.326c.677,1.233,3.33,2.156,6.506,2.156h.3a1.736,1.736,0,0,0-.25,1.233H6.71c-3.683,0-6.671-1.239-6.671-2.776A1.248,1.248,0,0,1,.2,12.326Zm12.5-3.877a2.64,2.64,0,1,0,2.64,2.64,2.64,2.64,0,0,0-2.64-2.64ZM.2,9.859c.677,1.233,3.329,2.156,6.506,2.156.384,0,.756-.012,1.122-.037a5.314,5.314,0,0,0,.384,1.2,14.782,14.782,0,0,1-1.506.069c-3.683,0-6.671-1.24-6.671-2.777A1.249,1.249,0,0,1,.2,9.859Zm0-2.466C.875,8.626,3.527,9.549,6.7,9.549c.421,0,.835-.012,1.231-.043a5.259,5.259,0,0,0-.2,1.246c-.336.018-.677.031-1.031.031-3.683,0-6.671-1.24-6.671-2.776A1.25,1.25,0,0,1,.2,7.393Zm0-2.466C.875,6.16,3.527,7.083,6.7,7.083a14.812,14.812,0,0,0,3.14-.322A5.236,5.236,0,0,0,8.5,8.217a15.321,15.321,0,0,1-1.8.1C3.021,8.316.033,7.077.033,5.54A1.25,1.25,0,0,1,.2,4.927ZM6.9,0c3.683,0,6.336,1.47,6.336,3.168S10.393,6.336,6.7,6.336.033,4.866.033,3.168,3.214,0,6.9,0Zm6.319,4.927a1.252,1.252,0,0,1,.165.614,1.8,1.8,0,0,1-.024.254,4.54,4.54,0,0,0-.506-.025c-.177,0-.341.013-.506.025a2.56,2.56,0,0,0,.872-.868Z" transform="translate(-0.033)"/></svg>