<svg xmlns="http://www.w3.org/2000/svg" width="15.555" height="13.999" viewBox="0 0 15.555 13.999"><defs><style></style></defs><path class="a" d="M14.777,54.666a.778.778,0,0,1,.778.778v8.977a.778.778,0,0,1-.778.778h-14A.778.778,0,0,1,0,64.421V55.444a.778.778,0,0,1,.778-.778ZM9.491,56.688l-1.684,1.79-1.685-1.79-.669.712L6.92,58.959H5.486v1.007l1.846-.006v.6l-1.951.006v1.007l1.947-.006v1.618h.947V61.566l1.749-.005V60.552l-1.746.007v-.6l1.849-.006V58.943L8.7,58.949,10.162,57.4l-.67-.712ZM13.412,51.2a.389.389,0,0,1,.383.319l.006.07,0,1.136h.648a.389.389,0,0,1,.389.389V54.14a.336.336,0,0,1-.671,0v-.576a.156.156,0,0,0-.156-.156H1.542a.156.156,0,0,0-.156.156v.576a.336.336,0,1,1-.671,0V53.115a.389.389,0,0,1,.389-.389h.649V51.589a.389.389,0,0,1,.389-.389h11.27Zm-.439.686H2.579a.156.156,0,0,0-.156.156v.684h10.7v-.684A.156.156,0,0,0,12.973,51.886Z" transform="translate(0 -51.2)"/></svg>