<svg xmlns="http://www.w3.org/2000/svg" width="16.218" height="15.488" viewBox="0 0 16.218 15.488"><defs><style></style></defs><g transform="translate(-112 -130)"><path class="a" d="M121.583,131.476h1.474a.738.738,0,0,1,.738.738v2.95a5.885,5.885,0,0,0-4.6,2.212h-4.979v1.476h4.115a5.9,5.9,0,0,0-.428,2.212h-3.688v1.476h3.872a5.877,5.877,0,0,0,1.107,2.212h-6.453a.738.738,0,0,1-.738-.738v-11.8a.738.738,0,0,1,.738-.738h1.474A1.474,1.474,0,0,1,115.686,130h4.423A1.474,1.474,0,0,1,121.583,131.476Zm-7.371,2.212v1.476h7.371v-1.476Z"/><path class="a" d="M480.023,460.784l-1.042-1.044a.737.737,0,0,0-1.042,1.042l1.042,1.044-1.042,1.044a.737.737,0,0,0,1.042,1.042l1.042-1.044,1.042,1.044a.737.737,0,0,0,1.042-1.042l-1.042-1.044,1.042-1.044a.737.737,0,0,0-1.042-1.042Zm0,5.467a4.426,4.426,0,1,1,4.424-4.426A4.424,4.424,0,0,1,480.023,466.251Z" transform="translate(-356.229 -320.763)"/></g></svg>