<svg xmlns="http://www.w3.org/2000/svg" width="18.3" height="20.686" viewBox="0 0 18.3 20.686"><defs><style>.a{fill:#383842;stroke:#383842;stroke-width:0.3px;}</style></defs><path class="a" d="M73.019,30.319c-3.234,0-9.019-4.5-9.019-9v-6.75a1.929,1.929,0,0,1,1.929-1.929,9.727,9.727,0,0,0,3.214-.964,34.769,34.769,0,0,0,3.231-1.566,1.286,1.286,0,0,1,1.252,0,34.918,34.918,0,0,0,3.231,1.566,9.727,9.727,0,0,0,3.214.964A1.929,1.929,0,0,1,82,14.567v6.75c0,4.5-5.143,9-9,9h.019ZM76.541,12.96q-1.513-.627-2.988-1.342a1.286,1.286,0,0,0-1.107,0q-1.909.914-2.983,1.342a16.343,16.343,0,0,1-4.177,1.034v7.323c0,3.857,5.2,7.714,7.714,7.714s7.714-3.857,7.714-7.714l-.082-7.323A15.848,15.848,0,0,1,76.541,12.96ZM72.3,22.746a.694.694,0,0,1-.98,0l-2.076-2.055a.681.681,0,0,1,0-.971.694.694,0,0,1,.978,0l1.588,1.572L75.82,17.32a.692.692,0,0,1,.977,0,.679.679,0,0,1,0,.971l-4.5,4.458v0Z" transform="translate(-63.85 -9.782)"/></svg>