<svg xmlns="http://www.w3.org/2000/svg" width="15.868" height="17.63" viewBox="0 0 15.868 17.63"><defs></defs><path class="a" d="M129.543,88.859h-.882a.661.661,0,1,1,0-1.322h14.545a.661.661,0,1,1,0,1.322H130.865v11.68a1.1,1.1,0,0,0,1.1,1.1H139.9a1.1,1.1,0,0,0,1.1-1.1v-9.7a.661.661,0,1,1,1.322,0v9.7a2.424,2.424,0,0,1-2.424,2.424h-7.934a2.424,2.424,0,0,1-2.424-2.424Zm4.628-2.2a.661.661,0,1,1,0-1.322H137.7a.661.661,0,1,1,0,1.322Zm-.661,5.95a.661.661,0,1,1,1.322,0v5.289a.661.661,0,0,1-1.322,0Zm3.526,0a.661.661,0,1,1,1.322,0v5.289a.661.661,0,1,1-1.322,0Z" transform="translate(-128 -85.333)"/></svg>