<svg xmlns="http://www.w3.org/2000/svg" width="16.038" height="16.039" viewBox="0 0 16.038 16.039"><defs><style></style></defs><path class="a" d="M10.776,6.766a.5.5,0,0,1-.5.5H5.764a.5.5,0,0,1-.5-.5A2.756,2.756,0,0,1,6.476,4.481a2.506,2.506,0,1,1,3.086,0,2.75,2.75,0,0,1,1.214,2.285Zm5.263,8.771a.5.5,0,0,1-.5.5H11.026a.5.5,0,0,1-.5-.5,2.756,2.756,0,0,1,1.214-2.285,2.506,2.506,0,1,1,3.086,0,2.75,2.75,0,0,1,1.214,2.285Zm-10.525,0a.5.5,0,0,1-.5.5H.5a.5.5,0,0,1-.5-.5,2.756,2.756,0,0,1,1.214-2.285,2.506,2.506,0,1,1,3.086,0,2.75,2.75,0,0,1,1.214,2.285Zm4.437-4.26a.5.5,0,0,1-.434.251.506.506,0,0,1-.251-.067l-1.247-.719-1.247.719a.5.5,0,1,1-.5-.868l1.247-.719V8.521a.5.5,0,0,1,1,0V9.872l1.247.719a.5.5,0,0,1,.183.686Z" transform="translate(0)"/></svg>