<svg xmlns="http://www.w3.org/2000/svg" width="20" height="20.056" viewBox="0 0 20 20.056"><defs></defs><path class="a" d="M8.278,8.444A.289.289,0,0,0,8.5,8.333a.421.421,0,0,0,.111-.222V1c0-.056,0-.111-.056-.111H8.444L6,3.333,2.778.111A.421.421,0,0,0,2.556,0a.424.424,0,0,0-.278.111L.111,2.278A.421.421,0,0,0,0,2.5a.424.424,0,0,0,.111.278L3.333,5.944,1,8.278c-.056.056-.056.056,0,.111,0,.056.056.056.111.056H8.278Zm0,3.056a.289.289,0,0,1,.222.111.421.421,0,0,1,.111.222V19c0,.056,0,.111-.056.111H8.444L6,16.667,2.778,19.889A.421.421,0,0,1,2.556,20a.289.289,0,0,1-.222-.111L.167,17.722A.3.3,0,0,1,0,17.5a.421.421,0,0,1,.111-.222l3.222-3.222L1,11.722c-.056-.056-.056-.056,0-.111,0-.056.056-.056.111-.056L8.278,11.5Zm3.444-3.056a.289.289,0,0,1-.222-.111.421.421,0,0,1-.111-.222V1c0-.056,0-.111.056-.111h.111L14,3.333,17.222.111A.421.421,0,0,1,17.444,0a.289.289,0,0,1,.222.111l2.167,2.167A.3.3,0,0,1,20,2.5a.289.289,0,0,1-.111.222L16.667,5.944,19,8.278c.056.056.056.056,0,.111,0,.056-.056.056-.111.056H11.722Zm0,3.056a.289.289,0,0,0-.222.111.421.421,0,0,0-.111.222V19c0,.056,0,.111.056.111h.111l2.389-2.389,3.222,3.222a.421.421,0,0,0,.222.111.289.289,0,0,0,.222-.111l2.167-2.167a.278.278,0,0,0,0-.444l-3.111-3.278L19,11.722c.056-.056.056-.056,0-.111,0-.056-.056-.056-.111-.056L11.722,11.5Z"/></svg>