<svg xmlns="http://www.w3.org/2000/svg" width="20" height="20.001" viewBox="0 0 20 20.001"><defs><style>.a{fill:#f9f9f9;}</style></defs><path class="a" d="M-1989.2,906a.861.861,0,0,1-.8-.91.86.86,0,0,1,.8-.909h18.4a.86.86,0,0,1,.8.909.861.861,0,0,1-.8.91Zm0-6.051a.86.86,0,0,1-.8-.909.86.86,0,0,1,.8-.91h10.8a.86.86,0,0,1,.8.91.86.86,0,0,1-.8.909Zm14.825-.455V892.5a.221.221,0,0,1,.361-.2l3.907,3.5a.261.261,0,0,1,.085.2.261.261,0,0,1-.085.2l-3.907,3.5a.2.2,0,0,1-.138.056A.237.237,0,0,1-1974.375,899.5Zm-14.825-5.625a.861.861,0,0,1-.8-.909.861.861,0,0,1,.8-.91h10.8a.861.861,0,0,1,.8.91.86.86,0,0,1-.8.909Zm0-6.05a.863.863,0,0,1-.8-.911.861.861,0,0,1,.8-.91h18.4v0a.86.86,0,0,1,.8.909.861.861,0,0,1-.8.91Z" transform="translate(1990 -886)"/></svg>