<svg xmlns="http://www.w3.org/2000/svg" width="20" height="20" viewBox="0 0 20 20"><defs></defs><path class="a" d="M.333.056A.289.289,0,0,0,.111.167.289.289,0,0,0,0,.389V7.5c0,.056,0,.111.056.111H.167L2.556,5.222,5.778,8.444A.421.421,0,0,0,6,8.556a.289.289,0,0,0,.222-.111L8.389,6.278A.421.421,0,0,0,8.5,6.056a.289.289,0,0,0-.111-.222L5.278,2.5,7.611.167c.056-.056.056-.056,0-.111A.054.054,0,0,0,7.556,0ZM.333,20a.289.289,0,0,1-.222-.111A.421.421,0,0,1,0,19.667V12.5c0-.056,0-.111.056-.111H.167l2.389,2.389,3.222-3.222A.421.421,0,0,1,6,11.444a.289.289,0,0,1,.222.111l2.167,2.167a.278.278,0,0,1,0,.444L5.167,17.389,7.5,19.722c.056.056.056.056,0,.111,0,.056-.056.056-.111.056ZM19.667.056a.289.289,0,0,1,.222.111A.289.289,0,0,1,20,.389V7.5c0,.056,0,.111-.056.111h-.111L17.444,5.222,14.222,8.444A.421.421,0,0,1,14,8.556a.289.289,0,0,1-.222-.111L11.611,6.278a.421.421,0,0,1-.111-.222.289.289,0,0,1,.111-.222l3.222-3.222L12.5.278c-.056-.056-.056-.056,0-.111C12.389,0,12.444,0,12.444,0l7.222.056Zm0,19.945a.289.289,0,0,0,.222-.111A.421.421,0,0,0,20,19.667V12.5c0-.056,0-.111-.056-.111h-.111l-2.389,2.389-3.222-3.222A.421.421,0,0,0,14,11.444a.289.289,0,0,0-.222.111l-2.167,2.167a.278.278,0,0,0,0,.444l3.222,3.222L12.5,19.722c-.056.056-.056.056,0,.111,0,.056.056.056.111.056L19.667,20Z" transform="translate(0 0)"/></svg>