<svg xmlns="http://www.w3.org/2000/svg" width="17" height="13.756" viewBox="0 0 17 13.756"><defs><style>.a{}</style></defs><path class="a" d="M16.57,71.111a1.08,1.08,0,0,1,.372.745.84.84,0,0,1-.271.677,1.018,1.018,0,0,1-.745.271,1.066,1.066,0,0,1-.677-.237q-.085-.068-.516-.474L13.7,71.12q-.6-.567-1.287-1.219t-1.3-1.227q-.609-.576-1.05-1t-.559-.525a1.534,1.534,0,0,0-1.067-.474,1.629,1.629,0,0,0-1.033.474q-.169.152-.635.584T5.7,68.741q-.61.576-1.287,1.2T3.161,71.111q-.576.542-.99.923t-.5.449a1.128,1.128,0,0,1-.677.22,1,1,0,0,1-.728-.254.9.9,0,0,1-.322-.736.949.949,0,0,1,.288-.686q.1-.1.626-.593t1.253-1.168L3.677,67.81q.838-.779,1.558-1.456t1.236-1.16q.516-.483.6-.567a2,2,0,0,1,1.388-.635,1.729,1.729,0,0,1,1.27.5q.1.085.423.4t.787.762q.466.449,1.041,1.007t1.168,1.126q.593.567,1.16,1.126t1.041,1.007q.474.449.8.77ZM7.411,68.656a1.551,1.551,0,0,1,1.016-.415,1.432,1.432,0,0,1,1.067.415q.051.051.3.288l.643.593q.372.356.838.8t.957.88l2.54,2.353v3.217a.921.921,0,0,1-.279.66,1.057,1.057,0,0,1-.753.3h-3.2V75.124q0-.559-.525-.559H6.784a.438.438,0,0,0-.4.169.7.7,0,0,0-.11.389q0,.1-.008.516t-.008.889v1.219h-3.1a1.252,1.252,0,0,1-.779-.22.742.742,0,0,1-.288-.626V73.532q1.388-1.27,2.523-2.3.474-.44.948-.872l.863-.787q.389-.356.652-.6t.33-.313Z" transform="translate(0.057 -63.992)"/></svg>