<svg xmlns="http://www.w3.org/2000/svg" width="17.123" height="20.473" viewBox="0 0 17.123 20.473"><defs></defs><path class="a" d="M-590.57,150.473a1.43,1.43,0,0,1-1.43-1.431v-9.508a1.429,1.429,0,0,1,1.43-1.43h14.262a1.435,1.435,0,0,1,1.43,1.43v9.508a1.429,1.429,0,0,1-1.43,1.431Zm0-9.992v7.6c0,.786.161.947.947.947h12.369c.786,0,.947-.161.947-.947h-.011v-7.6c0-.786-.161-.947-.946-.947h-12.359C-590.409,139.534-590.57,139.7-590.57,140.481Zm6.647,5.943V144.59a1.649,1.649,0,0,1-.947-1.49,1.664,1.664,0,0,1,1.662-1.662,1.659,1.659,0,0,1,1.661,1.672,1.653,1.653,0,0,1-.947,1.49v1.823a.718.718,0,0,1-.715.715A.718.718,0,0,1-583.923,146.424Zm6.075-10.247a6.216,6.216,0,0,0-5.592-4.739,6.217,6.217,0,0,0-5.592,4.739.72.72,0,0,1-.725.7.737.737,0,0,1-.735-.735v-.07a.073.073,0,0,1,.005-.026.065.065,0,0,0,0-.024.03.03,0,0,1,0-.014.07.07,0,0,0,.006-.027,7.552,7.552,0,0,1,6.979-5.979V130l.052,0,.052,0v.006a7.549,7.549,0,0,1,6.979,5.979.056.056,0,0,0,.007.027.044.044,0,0,1,0,.014.089.089,0,0,0,0,.024.075.075,0,0,1,.005.026v.07a.736.736,0,0,1-.735.735A.72.72,0,0,1-577.848,136.176Z" transform="translate(592 -130)"/></svg>