<svg xmlns="http://www.w3.org/2000/svg" width="20" height="19.997" viewBox="0 0 20 19.997"><defs></defs><path class="a" d="M7.289,20.02a9.9,9.9,0,0,1-3.115-1.529l.042-2.06a1.846,1.846,0,0,0-1.452-1.853L.779,14.161a10.288,10.288,0,0,1-.767-3.432L1.62,9.479a1.874,1.874,0,0,0,.518-2.311L1.221,5.329A10.2,10.2,0,0,1,3.38,2.578l1.964.5a1.811,1.811,0,0,0,2.1-1.028L8.283.175a9.948,9.948,0,0,1,3.458,0l.841,1.876a1.811,1.811,0,0,0,2.1,1.028l1.963-.5A10.2,10.2,0,0,1,18.8,5.329l-.917,1.839A1.874,1.874,0,0,0,18.4,9.479l1.608,1.25a10.288,10.288,0,0,1-.767,3.432l-1.985.417a1.846,1.846,0,0,0-1.452,1.853l.042,2.061a9.9,9.9,0,0,1-3.115,1.528L11.176,18.7a1.8,1.8,0,0,0-2.328,0L7.289,20.02Zm2.723-5.64a4.169,4.169,0,1,0-4.1-4.168A4.133,4.133,0,0,0,10.012,14.381Z" transform="translate(-0.012 -0.023)"/></svg>