<svg xmlns="http://www.w3.org/2000/svg" width="13.999" height="14" viewBox="0 0 13.999 14"><defs><style></style></defs><path class="a" d="M46.022,37.852V32.909a.778.778,0,0,0-.77-.766h-5.18a.778.778,0,0,0-.77.766v4.945a.778.778,0,0,0,.77.766h5.18a.778.778,0,0,0,.77-.768ZM32.792,39.384a.778.778,0,0,0-.77.766V45.1a.778.778,0,0,0,.77.766h5.18a.778.778,0,0,0,.77-.766V40.15a.778.778,0,0,0-.77-.766Zm2.87-3.344h-.77a2.474,2.474,0,0,1,2.45-2.437h.28a.33.33,0,0,0,.35-.348v-.9a.33.33,0,0,0-.35-.348h-.28a4.053,4.053,0,0,0-4.06,4.04h-.91c-.14,0-.21.139-.21.278,0,.07,0,.07.07.139l1.54,1.741a.34.34,0,0,0,.49,0l1.54-1.741a.211.211,0,0,0,0-.278c-.07-.07-.07-.139-.14-.139Zm6.72,5.85h.77a2.474,2.474,0,0,1-2.45,2.437h-.28a.33.33,0,0,0-.35.348v.975a.33.33,0,0,0,.35.348h.28a4.053,4.053,0,0,0,4.06-4.04h.91a.185.185,0,0,0,.21-.209c0-.07,0-.07-.07-.139l-1.54-1.741a.34.34,0,0,0-.49,0l-1.54,1.741a.211.211,0,0,0,0,.278c0-.07.07,0,.14,0Z" transform="translate(-32.022 -32.001)"/></svg>