<svg t="1650521937696" class="icon" viewBox="0 0 1024 1024" version="1.1" xmlns="http://www.w3.org/2000/svg" p-id="2627" width="200" height="200"><path d="M901.09 925.389a48.138 48.138 0 0 1-14.25 34.386 48.773 48.773 0 0 1-34.386 14.249h-681.38a48.138 48.138 0 0 1-34.38-14.25 48.748 48.748 0 0 1-14.25-34.385V49.423a48.19 48.19 0 0 1 14.25-34.4A48.748 48.748 0 0 1 171.074 0.777h417.997a48.589 48.589 0 0 1 34.591 14.09L887.01 278.2a48.681 48.681 0 0 1 14.08 34.591z" fill="#EBECF0" p-id="2628"></path><path d="M901.09 925.389v48.686a48.19 48.19 0 0 1-14.25 34.396 48.773 48.773 0 0 1-34.386 14.249h-681.38a48.707 48.707 0 0 1-48.68-48.696v-48.635a48.138 48.138 0 0 0 14.243 34.386 48.748 48.748 0 0 0 34.386 14.249h681.329a48.814 48.814 0 0 0 48.686-48.686z" fill="#C1C7D0" p-id="2629"></path><path d="M25.119 536.095h973.245v243.338a48.814 48.814 0 0 1-48.62 48.68H73.816a48.19 48.19 0 0 1-34.396-14.243 48.748 48.748 0 0 1-14.25-34.386z" fill="#317BFF" p-id="2630"></path><path d="M122.496 536.084v-97.367l-97.377 97.367z m778.593 0l0.932-97.367 96.86 97.367z" fill="#234AE8" p-id="2631"></path><path d="M901.09 312.74v6.84H637.767a48.691 48.691 0 0 1-48.692-48.68V0.726a48.589 48.589 0 0 1 34.586 14.09l263.762 263.23a49.331 49.331 0 0 1 13.665 34.693z" fill="#C1C7D0" p-id="2632"></path><path d="M259.676 606.582l19.789 102.548 18.893-102.553h52.173L310.05 772.1h-53.974l-18.893-96.25h-0.901l-18.888 96.25h-53.074l-41.38-165.52h53.074l17.992 102.55h0.901l19.789-102.554z m188.007-4.496q81.843 3.605 87.255 86.354-3.61 82.775-87.255 86.36-83.661-2.699-86.36-87.26 4.49-80.953 86.36-85.454z m0 40.48q-30.598 0.905-32.384 45.874 1.792 46.787 32.384 47.678 32.384-0.891 33.28-47.678-1.813-45.875-33.28-45.875z m180.807 71.966H612.3v57.564h-53.97v-165.52h78.26q76.442-1.791 72.858 46.777-0.896 32.39-27.889 40.484 30.566 6.297 28.79 44.073v7.198q-0.901 24.285 5.401 21.592v5.396h-54.88q-2.684-5.402-2.689-28.785 3.584-31.477-29.69-28.784z m-16.19-69.269v32.384h21.592q26.982 0.907 26.076-15.293-0.896-16.19-22.477-17.09z m196.998 126.833h-71.066V606.582H811.1q85.453 0.906 86.36 79.165 0 86.354-88.162 86.354z m-17.086-126.833v88.157h11.69q38.666 0 38.676-44.98 2.703-46.76-39.578-43.177z" fill="#FFFFFF" p-id="2633"></path></svg>